<svg width="1097" height="159" viewBox="0 0 1097 159" fill="none" xmlns="http://www.w3.org/2000/svg">
<path d="M1097 46.731V91.1535C1097 113.387 1083.89 126.139 1061.04 126.139C1038.1 126.139 1024.93 113.387 1024.93 91.1535V46.731H1043.07V91.1535C1043.07 103.74 1048.95 109.86 1061.04 109.86C1073.04 109.86 1078.86 103.74 1078.86 91.1535V46.731H1097ZM987.851 103.478C983.697 108.12 978.133 110.47 971.32 110.47C964.46 110.47 959 108.181 954.628 103.471C950.351 98.8617 948.193 92.8782 948.193 85.6764C948.193 78.4737 950.351 72.4874 954.628 67.8777C959 63.1705 964.46 60.8823 971.32 60.8823C978.133 60.8823 983.697 63.2359 987.851 67.8777C992.128 72.4874 994.294 78.4774 994.294 85.6764C994.294 92.8782 992.128 98.8617 987.851 103.478ZM971.168 45.0588C959.312 45.0588 949.367 48.8894 941.598 56.4475C933.943 63.9081 930.054 73.7416 930.054 85.6764C930.054 97.614 933.943 107.444 941.598 114.902C949.367 122.46 959.312 126.293 971.168 126.293C983.015 126.293 992.96 122.46 1000.73 114.902C1008.5 107.344 1012.43 97.5109 1012.43 85.6764C1012.43 73.8383 1008.5 64.0048 1000.73 56.4475C992.96 48.8894 983.015 45.0588 971.168 45.0588ZM903.02 46.7319H922.238V62.5545H902.849L902.547 98.6113C902.547 107.135 905.149 110.012 912.861 110.012C916.069 110.012 919.021 109.611 921.623 108.816L922.238 108.632V123.87L921.926 123.98C918.784 125.112 914.621 125.687 909.578 125.687C901.014 125.687 894.882 123.747 890.823 119.765C886.848 115.857 884.956 110.08 885.032 102.102L885.344 62.5545H871.434V46.7319H885.344L885.505 27.8697H903.171L903.02 46.7319ZM842.829 46.7291H860.335V124.618H842.829V46.7291ZM851.582 13.4173C856.058 13.0656 860.164 15.8032 862 20.2388C863.77 24.5317 862.814 29.0309 859.559 31.7077C857.401 33.8505 854.62 34.7069 851.923 34.7069C850.021 34.7069 848.156 34.2842 846.586 33.5826C842.469 31.7464 840.132 28.1451 840.482 24.1818C840.482 18.1633 845.356 13.4173 851.582 13.4173ZM805.774 46.7319H823.914V91.1535C823.914 113.387 810.808 126.139 787.957 126.139C765.01 126.139 751.848 113.387 751.848 91.1535V46.7319H769.987V91.1535C769.987 103.741 775.864 109.86 787.957 109.86C799.955 109.86 805.774 103.741 805.774 91.1535V46.7319ZM693.228 110.168C680.368 110.168 671.038 99.8655 671.038 85.6774C671.038 71.2573 680.094 61.1871 693.077 61.1871C698.934 61.1871 703.996 63.3335 708.529 67.7461C712.891 71.9966 715.115 77.8255 715.115 85.0659V85.9813C715.115 93.3838 712.957 99.1509 708.529 103.605C703.996 108.021 698.991 110.168 693.228 110.168ZM716.014 56.9071C709.853 49.0423 701.138 45.0569 690.105 45.0569C679.082 45.0569 670.319 48.8941 663.327 56.7754C656.41 64.433 652.899 74.1533 652.899 85.6774C652.899 97.1463 656.41 106.919 663.336 114.731C670.528 122.509 679.337 126.291 690.257 126.291C701.072 126.291 709.371 122.813 714.954 115.95V157.327H732.469V46.7319H717.026L716.014 56.9071ZM622.26 46.7319H640.399V91.1535C640.399 113.387 627.294 126.139 604.442 126.139C581.486 126.139 568.333 113.387 568.333 91.1535V46.7319H586.463V91.1535C586.463 103.741 592.349 109.86 604.442 109.86C616.431 109.86 622.26 103.741 622.26 91.1535V46.7319ZM531.24 103.478C527.086 108.12 521.523 110.47 514.71 110.47C507.849 110.47 502.389 108.181 498.018 103.471C493.75 98.8617 491.583 92.8782 491.583 85.6764C491.583 78.4774 493.75 72.4874 498.018 67.8777C502.399 63.1705 507.849 60.8823 514.71 60.8823C521.523 60.8823 527.086 63.2359 531.24 67.8777C535.518 72.4874 537.694 78.4774 537.694 85.6764C537.694 92.8782 535.518 98.8617 531.24 103.478ZM514.558 45.0588C502.711 45.0588 492.757 48.8894 484.998 56.4475C477.333 63.9081 473.444 73.7416 473.444 85.6764C473.444 97.614 477.333 107.444 484.998 114.902C492.757 122.46 502.702 126.293 514.558 126.293C526.405 126.293 536.359 122.46 544.119 114.902C551.887 107.341 555.824 97.5109 555.824 85.6764C555.824 73.842 551.887 64.0084 544.119 56.4475C536.35 48.8894 526.405 45.0588 514.558 45.0588ZM419.205 108.491C406.592 108.491 397.792 98.7964 397.792 84.9158C397.792 70.8152 406.327 61.3372 419.044 61.3372C425.015 61.3372 430.068 63.4358 434.506 67.748C438.972 71.9497 441.243 77.5226 441.243 84.3081V85.2096C441.082 92.3018 438.877 97.823 434.496 102.09C430.219 106.4 425.223 108.491 419.205 108.491ZM441.972 56.8858C435.812 49.034 427.106 45.0579 416.073 45.0579C405.21 45.0579 396.609 48.743 389.777 56.314C383.059 63.6134 379.652 73.237 379.652 84.9158C379.652 96.4427 383.059 106.066 389.777 113.514C396.514 120.982 405.361 124.77 416.073 124.77C426.642 124.77 435.745 120.959 440.77 114.504V122.947C440.77 135.706 432.831 143.325 419.517 143.325C407.718 143.325 401.009 139.064 399.031 130.301L398.946 129.942H381.45L381.535 130.469C384.364 148.6 398.208 159 419.517 159C431.099 159 440.571 155.576 447.659 148.83C454.812 142.184 458.446 133.32 458.446 122.488V46.7328H442.842L441.972 56.8858ZM349.013 46.7319H367.152V91.1535C367.152 113.387 354.047 126.139 331.195 126.139C308.248 126.139 295.086 113.387 295.086 91.1535V46.7319H313.216V91.1535C313.216 103.741 319.102 109.86 331.195 109.86C343.184 109.86 349.013 103.741 349.013 91.1535V46.7319ZM258.665 12.6549H276.171V124.618H258.665V12.6549ZM198.796 110.168C185.814 110.168 176.749 100.098 176.749 85.6774C176.749 71.2573 185.814 61.1871 198.796 61.1871C204.654 61.1871 209.707 63.3335 214.249 67.7461C218.62 71.9966 220.825 77.8255 220.825 85.0659V86.2851C220.825 93.7328 218.677 99.4483 214.239 103.763C210.028 108.011 204.824 110.168 198.796 110.168ZM221.733 56.9071C215.564 49.0423 206.858 45.0569 195.816 45.0569C184.801 45.0569 176.039 48.8941 169.047 56.7754C162.13 64.433 158.619 74.1533 158.619 85.6774C158.619 97.1463 162.13 106.919 169.047 114.728C175.992 122.403 184.991 126.291 195.816 126.291C207.067 126.291 215.772 122.364 221.733 114.615L222.746 124.62H238.189V46.7319H222.746L221.733 56.9071ZM92.0031 109.22C92.0031 118.474 84.2723 126.002 74.7625 126.002H35.8342C26.3244 126.002 18.5841 118.474 18.5841 109.22V96.0781C18.5841 86.8238 26.3244 79.296 35.8342 79.296H92.0031V109.22ZM70.2963 -5.72205e-06C48.0785 -5.72205e-06 30.0052 17.5896 30.0052 39.2115H48.5897C48.5897 27.5649 58.3264 18.0878 70.2963 18.0878C82.2663 18.0878 92.0031 27.5649 92.0031 39.2115V61.2082H35.8342C16.0766 61.2082 0 76.8512 0 96.0781V109.22C0 128.446 16.0766 144.09 35.8342 144.09H74.7625C94.5201 144.09 110.597 128.446 110.597 109.22V39.2115C110.597 17.5896 92.5142 -5.72205e-06 70.2963 -5.72205e-06Z" fill="black"/>
</svg>
