<svg width="56" height="56" viewBox="0 0 56 56" fill="none" xmlns="http://www.w3.org/2000/svg">
<g clip-path="url(#clip0_23_112)">
<path d="M43.6524 4.53908C44.4564 3.93044 45.5052 3.77134 46.4416 4.09376L46.836 4.26172C50.4384 6.11628 53.9176 9.70388 55.7032 13.3789C56.1032 14.2055 56.1044 15.1737 55.7032 16C53.9172 19.6751 50.438 23.259 46.836 25.1133C45.8104 25.6403 44.5716 25.5318 43.6524 24.8359C42.7328 24.1382 42.2956 22.9744 42.5272 21.8438C42.816 20.4388 43.0104 19.058 43.1328 17.6914H42.1328C40.1684 17.6915 39.0605 18.1052 38.418 18.5469C37.7998 18.9724 37.322 19.6221 36.9766 20.668C36.2012 23.0187 36.3644 26.3857 36.6328 30.6211C36.8751 34.4446 37.2191 39.142 36 42.836C35.3482 44.81 34.2048 46.6824 32.2617 48.0196C30.581 49.1752 28.5303 49.7748 26.1758 49.9064L25.1484 49.9336H18.3828C17.9798 51.256 17.3236 52.4516 16.3476 53.4376C14.5747 55.2284 12.1241 55.9996 9.43752 56C6.75096 56 4.30048 55.228 2.52734 53.4376C0.758024 51.65 0.000153915 49.188 0 46.492C0.000135488 43.7964 0.757924 41.3344 2.52734 39.5469C4.30048 37.7562 6.75084 36.9844 9.43752 36.9844C12.1237 36.9846 14.5748 37.7564 16.3476 39.5469C17.5363 40.748 18.261 42.2568 18.6133 43.9336H25.1484L25.8438 43.914C27.3788 43.8288 28.2969 43.4644 28.8594 43.078C29.4777 42.6528 29.9592 42.0028 30.3047 40.9572C31.0804 38.6066 30.9129 35.2392 30.6445 31.0039C30.4023 27.1806 30.0587 22.4832 31.2774 18.7891C31.9292 16.8142 33.0755 14.9429 35.0195 13.6055C36.9406 12.2846 39.3425 11.6915 42.1328 11.6914H43.1328C43.0104 10.3235 42.816 8.94144 42.5272 7.53516C42.2948 6.40424 42.7328 5.23724 43.6524 4.53908ZM9.43752 41.9844C7.68524 41.9844 6.66764 42.4752 6.08204 43.0664C5.49288 43.6616 5.00012 44.7032 5 46.492C5.00016 48.2812 5.49288 49.3268 6.08204 49.922C6.66796 50.512 7.68732 51 9.43752 51C11.1878 50.9996 12.2073 50.5124 12.793 49.922C13.382 49.3268 13.8748 48.2808 13.875 46.492C13.8749 44.7044 13.3816 43.6616 12.793 43.0664C12.2075 42.4752 11.1891 41.9848 9.43752 41.9844ZM14.5 0C15.4682 0.000188069 16.1056 0.559696 16.4141 0.910156C16.7274 1.26628 16.9477 1.67876 17.1016 2C17.4076 2.63935 17.721 3.52202 18.0039 4.27344C18.6388 5.95952 19.3438 7.58212 20.3984 8.63672C21.4362 9.67416 23.0224 10.3229 24.7148 10.9297C25.4641 11.1983 26.3587 11.5009 27.0234 11.8281C27.3608 11.9943 27.7952 12.2401 28.1641 12.5976C28.5067 12.9303 28.8899 13.4611 28.9805 14.1797L29 14.5L28.9805 14.8203C28.8899 15.5389 28.5067 16.0697 28.1641 16.4024C27.7952 16.7599 27.3608 17.0057 27.0234 17.1719C26.3587 17.4991 25.4641 17.8017 24.7148 18.0703C23.0224 18.6771 21.4362 19.3258 20.3984 20.3633C19.3438 21.4179 18.6388 23.0405 18.0039 24.7266C17.721 25.478 17.4076 26.3606 17.1016 27C16.9477 27.3212 16.7274 27.7337 16.4141 28.0898C16.1056 28.4403 15.4682 28.9998 14.5 29C13.5319 28.9999 12.8946 28.4404 12.5859 28.0898C12.2726 27.7337 12.0523 27.3212 11.8984 27C11.5924 26.3607 11.279 25.478 10.9961 24.7266C10.3613 23.0406 9.656 21.4179 8.60156 20.3633C7.56388 19.3258 5.97756 18.6771 4.28516 18.0703C3.53589 17.8017 2.6414 17.4992 1.97656 17.1719C1.63945 17.0058 1.20861 16.7596 0.839844 16.4024C0.447784 16.0223 0 15.3842 0 14.5C3.204e-07 13.6158 0.447784 12.9777 0.839844 12.5976C1.20861 12.2404 1.63945 11.9942 1.97656 11.8281C2.6414 11.5008 3.53589 11.1983 4.28516 10.9297C5.97756 10.3229 7.56388 9.67416 8.60156 8.63672C9.656 7.58212 10.3613 5.9594 10.9961 4.27344C11.279 3.52198 11.5924 2.63932 11.8984 2C12.0523 1.67875 12.2726 1.26628 12.5859 0.910156C12.856 0.603448 13.3777 0.13526 14.1524 0.0234375L14.5 0Z" fill="#0B0D12"/>
</g>
<defs>
<clipPath id="clip0_23_112">
<rect width="56" height="56" fill="white"/>
</clipPath>
</defs>
</svg>
