<svg width="56" height="56" viewBox="0 0 56 56" fill="none" xmlns="http://www.w3.org/2000/svg">
<g clip-path="url(#clip0_23_104)">
<path fill-rule="evenodd" clip-rule="evenodd" d="M32.7688 2.46001C30.3778 -0.820217 25.6332 -0.819189 23.2418 2.45821C20.454 6.27868 18.5066 10.3953 17.1932 15.0652C12.6675 15.0822 8.38444 15.7463 4.1236 17.1826C0.280741 18.4781 -1.15978 23.0829 1.02736 26.4073C3.62329 30.353 6.76212 33.5568 10.658 36.275C9.28324 40.7388 8.61664 45.1572 8.57148 49.7572C8.53208 53.7744 12.2728 57.0368 16.3657 55.708C20.6112 54.3292 24.405 52.2804 27.9943 49.4176C31.5862 52.2812 35.3858 54.3304 39.6339 55.7084C43.7264 57.036 47.4672 53.7744 47.4276 49.7572C47.3824 45.1572 46.716 40.7388 45.3412 36.275C49.2372 33.5568 52.376 30.353 54.972 26.4073C57.1588 23.083 55.7184 18.4781 51.8756 17.1826C47.6148 15.7463 43.332 15.0822 38.8063 15.0652C37.4948 10.3974 35.5539 6.28108 32.7688 2.46001ZM27.2808 5.40544C27.5041 5.0994 27.7756 4.99996 28.005 5C28.2344 5.00004 28.5053 5.09936 28.7282 5.40516C31.4619 9.15564 33.2823 13.2584 34.4466 18.1739C34.7217 19.3354 35.7794 20.1404 36.9722 20.096C41.7116 19.9197 46.02 20.4851 50.2784 21.9207C50.8868 22.1257 51.2564 22.9578 50.7948 23.6592C48.2564 27.5172 45.1316 30.5486 41.0368 33.1319C40.0508 33.7538 39.6257 34.9743 40.0116 36.0741C41.6188 40.6544 42.382 45.1128 42.428 49.8064C42.4324 50.2796 42.2288 50.6188 41.9876 50.8084C41.7556 50.9912 41.4812 51.0512 41.1768 50.9524C36.9561 49.5832 33.243 47.4532 29.6488 44.2796C28.7036 43.4452 27.2847 43.4452 26.3394 44.2796C22.7447 47.4536 19.038 49.5832 14.8216 50.952C14.5178 51.0508 14.2434 50.9908 14.0115 50.8084C13.7706 50.6188 13.5666 50.2796 13.5712 49.8064C13.6173 45.1128 14.3802 40.6544 15.9876 36.0741C16.3735 34.9743 15.9483 33.7538 14.9625 33.1319C10.8676 30.5486 7.74268 27.5172 5.2044 23.6592C4.74296 22.9578 5.11252 22.1257 5.7208 21.9207C9.97932 20.4851 14.2878 19.9197 19.027 20.096C20.2198 20.1404 21.2775 19.3354 21.5526 18.1739C22.7164 13.2604 24.5431 9.15732 27.2808 5.40544Z" fill="#0B0D12"/>
</g>
<defs>
<clipPath id="clip0_23_104">
<rect width="56" height="56" fill="white"/>
</clipPath>
</defs>
</svg>
