<svg width="56" height="56" viewBox="0 0 56 56" fill="none" xmlns="http://www.w3.org/2000/svg">
<path d="M48.7662 28.0009C48.7662 22.4932 46.579 17.2095 42.6845 13.315C38.7902 9.42087 33.5081 7.23356 28.0009 7.23332C22.4932 7.23332 17.2095 9.42052 13.315 13.315C9.42052 17.2095 7.23332 22.4932 7.23332 28.0009C7.23356 33.5081 9.42087 38.7902 13.315 42.6845C17.2095 46.579 22.4932 48.7662 28.0009 48.7662C33.5082 48.766 38.7902 46.5788 42.6845 42.6845C46.5788 38.7902 48.766 33.5082 48.7662 28.0009ZM25.6676 15.2633C25.6681 13.975 26.7125 12.9299 28.0009 12.9299C29.2888 12.9304 30.3337 13.9753 30.3342 15.2633V25.6676H38.2662C39.5549 25.6676 40.5995 26.7122 40.5995 28.0009C40.599 29.2891 39.5546 30.3342 38.2662 30.3342H28.0009C26.7125 30.3342 25.6681 29.2891 25.6676 28.0009V15.2633ZM53.4329 28.0009C53.4326 34.7459 50.7534 41.2145 45.984 45.984C41.2145 50.7534 34.7459 53.4326 28.0009 53.4329C21.2556 53.4329 14.7852 50.7536 10.0155 45.984C5.24623 41.2145 2.56689 34.7458 2.56665 28.0009C2.56665 21.2556 5.24587 14.7852 10.0155 10.0155C14.7852 5.24587 21.2556 2.56665 28.0009 2.56665C34.7458 2.56689 41.2145 5.24623 45.984 10.0155C50.7536 14.7852 53.4329 21.2556 53.4329 28.0009Z" fill="#1F252E"/>
</svg>
