<svg width="56" height="56" viewBox="0 0 56 56" fill="none" xmlns="http://www.w3.org/2000/svg">
<path fill-rule="evenodd" clip-rule="evenodd" d="M27.3057 6.316C27.7362 5.94288 28.389 5.885 28.9129 6.22192L29.387 6.52664C30.5847 7.29616 31.7313 8.03324 32.857 8.79336C31.1472 10.7168 30.1142 12.9397 30.1142 15.3577C30.1142 18.044 31.3892 20.4896 33.4508 22.5512C35.5124 24.6129 37.958 25.8878 40.6444 25.8878C43.0772 25.8878 45.3128 24.8421 47.2444 23.1134C47.9848 24.2006 48.7032 25.3067 49.452 26.4601L49.7728 26.9544C50.1136 27.4788 50.0588 28.134 49.6876 28.5666C48.3592 30.1149 46.4784 32.287 44.5708 34.4266C44.0664 34.9925 43.8456 35.7569 43.9716 36.5047C44.0972 37.2525 44.5552 37.9028 45.2172 38.2727C45.7424 38.5663 46.3068 38.9916 46.8956 39.5805C48.3064 40.9912 48.7676 42.2352 48.7676 43.2384C48.7676 44.2416 48.3064 45.4856 46.8956 46.8964C45.4848 48.3072 44.2408 48.7688 43.2376 48.7688C42.2344 48.7688 40.9904 48.3072 39.5796 46.8964C38.9906 46.3076 38.5653 45.7432 38.2718 45.218C37.9019 44.556 37.2516 44.098 36.5038 43.972C35.756 43.8464 34.9916 44.0668 34.4256 44.5716C32.2864 46.4792 30.1146 48.3592 28.5666 49.6872C28.134 50.0584 27.4795 50.1136 26.955 49.7728L26.4604 49.4516C25.3069 48.7028 24.2005 47.9844 23.1132 47.2436C24.8422 45.312 25.8882 43.0764 25.8882 40.6432C25.8882 37.957 24.6132 35.5114 22.5516 33.4498C20.49 31.3881 18.0444 30.1132 15.3581 30.1132C12.9398 30.1132 10.7168 31.1463 8.79316 32.8564C8.03304 31.7308 7.29612 30.5844 6.52664 29.3868L6.22228 28.9132C5.88536 28.3892 5.94288 27.7359 6.31604 27.3054C7.63376 25.7852 9.49164 23.6613 11.3822 21.564C11.8899 21.0008 12.1146 20.2376 11.9929 19.4891C11.8713 18.7406 11.4165 18.0878 10.7566 17.7144C10.2388 17.4214 9.6838 17.0005 9.1048 16.4215C7.69396 15.0106 7.23268 13.7667 7.23268 12.7635C7.23268 11.7603 7.69396 10.5164 9.1048 9.10548C10.5157 7.69464 11.7596 7.23336 12.7628 7.23336C13.766 7.23336 15.01 7.69464 16.4208 9.10548C16.9998 9.68448 17.4207 10.2395 17.7137 10.7572C18.0871 11.4172 18.7399 11.872 19.4884 11.9936C20.2368 12.1152 21.0001 11.8906 21.5633 11.3829C23.6609 9.49208 25.7852 7.63388 27.3057 6.316ZM24.0308 2.53776C26.1784 0.676237 29.2708 0.507833 31.6167 2.01605L32.0901 2.32026L32.1212 2.34026C34.1895 3.66918 36.2618 5.00064 38.3571 6.5584C39.0096 7.04348 39.3854 7.81548 39.3648 8.62824C39.3441 9.44096 38.9295 10.1929 38.2532 10.6442C37.8479 10.9147 37.4236 11.2624 36.9863 11.6997C35.5755 13.1106 35.1142 14.3545 35.1142 15.3577C35.1142 16.3609 35.5755 17.6048 36.9863 19.0157C38.3972 20.4266 39.6411 20.8878 40.6444 20.8878C41.6476 20.8878 42.8916 20.4266 44.3024 19.0157C44.7476 18.5704 45.1 18.1386 45.3724 17.7266C45.8212 17.0487 46.5712 16.6311 47.3836 16.607C48.196 16.583 48.9696 16.9554 49.4576 17.6056C50.9992 19.6608 52.3156 21.6888 53.626 23.707L53.6456 23.7374L53.966 24.2307C55.4852 26.5693 55.3344 29.664 53.482 31.8226C52.5628 32.8939 51.378 34.2655 50.0992 35.7228C50.2108 35.8279 50.3216 35.9353 50.4312 36.045C52.4928 38.1066 53.7676 40.5524 53.7676 43.2384C53.7676 45.9248 52.4928 48.3704 50.4312 50.432C48.3696 52.4936 45.924 53.7688 43.2376 53.7688C40.5512 53.7688 38.1057 52.4936 36.0441 50.432C35.9344 50.3224 35.8269 50.2116 35.7218 50.1C34.2648 51.3784 32.8936 52.5628 31.8225 53.482C29.664 55.334 26.5699 55.4852 24.2314 53.966L23.7377 53.6456L23.7071 53.6256C21.6888 52.3152 19.6605 50.9988 17.6052 49.4568C16.955 48.9692 16.5825 48.1956 16.6066 47.3828C16.6308 46.5704 17.0484 45.8204 17.7264 45.372C18.1386 45.0992 18.5705 44.7468 19.0161 44.3012C20.4269 42.8904 20.8882 41.6464 20.8882 40.6432C20.8882 39.6401 20.4269 38.3961 19.0161 36.9853C17.6052 35.5744 16.3613 35.1132 15.3581 35.1132C14.3549 35.1132 13.1109 35.5744 11.7001 36.9853C11.2626 37.4228 10.9147 37.8472 10.6442 38.2527C10.193 38.929 9.44104 39.3436 8.62824 39.3644C7.81548 39.385 7.0434 39.0092 6.55832 38.3567C5.00056 36.2614 3.66913 34.1892 2.34022 32.1208L2.32027 32.0898L2.01641 31.617C0.508156 29.2711 0.676239 26.1781 2.53784 24.0304C3.44308 22.9861 4.60436 21.6555 5.85972 20.2399C5.76212 20.1474 5.66532 20.0531 5.56928 19.957C3.50764 17.8954 2.23268 15.4498 2.23268 12.7635C2.23268 10.0772 3.50764 7.6316 5.56928 5.56996C7.63092 3.50832 10.0765 2.23336 12.7628 2.23335C15.4491 2.23335 17.8947 3.50832 19.9564 5.56996C20.0524 5.666 20.1467 5.76284 20.2392 5.86044C21.6552 4.60476 22.9862 3.44318 24.0308 2.53776Z" fill="#0B0D12"/>
</svg>
