<svg width="56" height="56" viewBox="0 0 56 56" fill="none" xmlns="http://www.w3.org/2000/svg">
<path fill-rule="evenodd" clip-rule="evenodd" d="M5.99416 3.5C5.99416 2.11929 4.87484 1 3.49414 1C2.11343 1 0.994141 2.11929 0.994141 3.5V44.0344C0.994141 49.5652 5.29092 54.1736 10.8541 54.4552C15.9606 54.7132 22.7541 54.9968 27.9983 54.9968C32.8507 54.9968 39.027 54.754 43.9636 54.5136C46.4376 54.3932 48.6104 54.2724 50.1656 54.182C50.9432 54.1368 51.5664 54.0992 51.996 54.0728L52.4896 54.042L52.6184 54.034L52.6512 54.032L52.66 54.0312C54.0376 53.9424 55.086 52.7536 54.9972 51.3756C54.9088 49.998 53.7196 48.9528 52.342 49.0416L52.332 49.042L52.3004 49.044L52.1752 49.052L51.6888 49.0824C51.2644 49.1084 50.6468 49.1456 49.8752 49.1904C48.3324 49.2804 46.1752 49.4 43.72 49.5196C38.7988 49.7592 32.723 49.9968 27.9983 49.9968C22.8886 49.9968 16.2016 49.7192 11.1066 49.4616C8.24304 49.3168 5.99416 46.9416 5.99416 44.0344V3.5ZM48.694 16.2086C49.8212 16.4483 50.986 16.0212 51.6912 15.1097C52.396 14.1981 52.5168 12.9631 52.0012 11.9323C50.1916 8.31388 46.682 4.8054 43.0632 2.9963C42.2188 2.57416 41.2248 2.57415 40.3804 2.99626C36.7613 4.80536 33.2519 8.31388 31.4423 11.9323C30.9268 12.9631 31.0473 14.1981 31.7524 15.1097C32.4575 16.0212 33.6224 16.4483 34.7495 16.2086L34.757 16.207L34.7896 16.2002L34.927 16.1719C35.0492 16.1471 35.23 16.111 35.4574 16.0673C35.9133 15.9798 36.5517 15.8629 37.2777 15.7463C37.6606 15.6848 38.057 15.6252 38.4558 15.5705C37.9783 22.272 36.7952 27.1788 34.4055 30.654C31.3094 35.1566 25.6354 37.9305 14.0493 37.9305C12.3924 37.9305 11.0493 39.2736 11.0493 40.9304C11.0493 42.5872 12.3924 43.9304 14.0493 43.9304C26.4413 43.9304 34.6037 40.9552 39.3494 34.0536C42.6436 29.2633 43.9912 22.9405 44.4788 15.5037C45.0472 15.5748 45.62 15.6586 46.1656 15.7463C46.8916 15.8629 47.53 15.9798 47.986 16.0673C48.2136 16.111 48.3944 16.1471 48.5164 16.1719L48.654 16.2002L48.6864 16.207L48.694 16.2086Z" fill="#0B0D12"/>
</svg>
