<svg width="56" height="56" viewBox="0 0 56 56" fill="none" xmlns="http://www.w3.org/2000/svg">
<g clip-path="url(#clip0_23_108)">
<path fill-rule="evenodd" clip-rule="evenodd" d="M33.9516 5.79164C26.6204 3.82741 19.1656 5.63512 13.6483 10.0344C14.2767 10.489 14.8423 10.933 15.3414 11.3502C16.2386 12.1002 16.7239 13.1474 16.6586 14.1965C16.5917 15.2698 15.9506 16.2287 14.8508 16.7113C12.3665 17.8015 9.50676 18.3137 7.41144 18.4658C5.86932 18.5778 4.3856 17.7212 3.71149 16.3299C2.79556 14.4394 1.80933 11.7069 1.51138 9.01048C1.37949 7.81692 1.8895 6.7822 2.78559 6.18772C3.66159 5.60656 4.81124 5.5032 5.90936 5.90512C6.86924 6.25648 7.9688 6.71692 9.14552 7.30528C15.9547 1.11324 25.6847 -1.59964 35.2456 0.961964C47.6264 4.27904 55.8292 15.3918 55.998 27.5992C56.0172 28.9798 54.9136 30.1145 53.5328 30.1336C52.1524 30.1527 51.0176 29.049 50.9984 27.6684C50.8596 17.6394 44.1148 8.5146 33.9516 5.79164ZM46.8544 48.6948C48.0308 49.2828 49.13 49.7432 50.0896 50.0944C51.188 50.4964 52.3376 50.3932 53.2136 49.812C54.1096 49.2176 54.6196 48.1828 54.4876 46.9892C54.1896 44.2928 53.2036 41.5604 52.2876 39.6698C51.6136 38.2785 50.1296 37.4219 48.5876 37.5339C46.4924 37.686 43.6328 38.1982 41.1484 39.2884C40.0484 39.771 39.4074 40.73 39.3406 41.8032C39.2752 42.8524 39.7605 43.8996 40.6576 44.6496C41.1568 45.0668 41.7228 45.5108 42.3512 45.9656C36.8341 50.3648 29.3795 52.1724 22.0485 50.208C11.8853 47.4852 5.14052 38.3603 5.00172 28.3313C4.9826 26.9507 3.84794 25.847 2.46736 25.8661C1.08678 25.8852 -0.0169103 27.0199 0.00219753 28.4005C0.171143 40.608 8.37388 51.7208 20.7546 55.0376C30.3153 57.5992 40.0452 54.8864 46.8544 48.6948Z" fill="#0B0D12"/>
</g>
<defs>
<clipPath id="clip0_23_108">
<rect width="56" height="56" fill="white"/>
</clipPath>
</defs>
</svg>
