<svg xmlns="http://www.w3.org/2000/svg" width="56" height="56" viewBox="0 0 56 56" fill="none">
<g clip-path="url(#clip0_23_99)">
<path d="M28 11.6667C36.9887 11.6667 44.3333 19.0113 44.3333 28C44.3333 33.9684 41.1378 39.2926 36.1667 42.0478V45.5C36.1667 48.9578 33.6364 51.839 30.3333 52.3976V56H25.6667V52.3976C22.3636 51.839 19.8333 48.9578 19.8333 45.5V42.0478C14.8623 39.2926 11.6667 33.9684 11.6667 28C11.6667 19.0113 19.0113 11.6667 28 11.6667ZM24.5 43.1667V45.5C24.5 46.778 25.5554 47.8333 26.8333 47.8333H29.1667C30.4446 47.8333 31.5 46.778 31.5 45.5V43.1667H24.5ZM28 16.3333C21.5887 16.3333 16.3333 21.5887 16.3333 28C16.3333 32.6821 19.0579 36.7281 23.0849 38.4545C23.1157 38.4676 23.1439 38.4855 23.1738 38.5H32.8263C32.8561 38.4855 32.8844 38.4676 32.9149 38.4545C36.942 36.7281 39.6667 32.6821 39.6667 28C39.6667 21.5887 34.4113 16.3333 28 16.3333ZM7 30.3333H0V25.6667H7V30.3333ZM56 30.3333H49V25.6667H56V30.3333ZM14.7155 11.416L11.416 14.7155L6.51693 9.8164L9.8164 6.51693L14.7155 11.416ZM49.483 9.8164L44.5839 14.7155L41.2846 11.416L46.1837 6.51693L49.483 9.8164ZM30.3333 7H25.6667V0H30.3333V7Z" fill="#0B0D12"/>
</g>
<defs>
<clipPath id="clip0_23_99">
<rect width="56" height="56" fill="white"/>
</clipPath>
</defs>
</svg>