<svg width="12" height="8" viewBox="0 0 12 8" fill="none" xmlns="http://www.w3.org/2000/svg">
<path d="M2.48582 7.38634C1.97682 7.38634 1.53648 7.26797 1.16479 7.03123C0.793109 6.79212 0.505467 6.46186 0.301869 6.04046C0.100638 5.61669 2.22251e-05 5.129 2.22251e-05 4.57739C2.22251e-05 4.02815 0.100638 3.54046 0.301869 3.11432C0.505467 2.68582 0.786007 2.35083 1.14349 2.10935C1.50334 1.86551 1.91882 1.74359 2.38994 1.74359C2.68587 1.74359 2.97114 1.79804 3.24576 1.90694C3.52038 2.01347 3.76659 2.17801 3.9844 2.40055C4.20457 2.62072 4.37857 2.89889 4.50641 3.23506C4.63426 3.56887 4.69818 3.96423 4.69818 4.42114V4.73364H0.436812V4.17611H4.05187C4.05187 3.82574 3.98085 3.51087 3.8388 3.23151C3.69912 2.94979 3.50381 2.72725 3.25286 2.5639C3.00428 2.40055 2.71664 2.31887 2.38994 2.31887C2.04429 2.31887 1.74008 2.4112 1.47729 2.59586C1.21451 2.78052 1.00854 3.02436 0.859397 3.32739C0.712617 3.63042 0.638043 3.96186 0.635676 4.32171V4.65552C0.635676 5.08876 0.71025 5.46754 0.859397 5.79188C1.01091 6.11385 1.22516 6.36361 1.50215 6.54117C1.77914 6.71873 2.10703 6.80751 2.48582 6.80751C2.74387 6.80751 2.96996 6.76726 3.16408 6.68677C3.36058 6.60628 3.52512 6.49856 3.65769 6.36361C3.79264 6.2263 3.89444 6.07597 3.96309 5.91262L4.56323 6.10793C4.48037 6.33757 4.34425 6.54946 4.15485 6.74359C3.96783 6.93771 3.73345 7.09396 3.45173 7.21234C3.17237 7.32834 2.8504 7.38634 2.48582 7.38634ZM8.43841 7.27271H5.97392V-2.24113e-05H8.48813C9.21019 -2.24113e-05 9.83046 0.145574 10.3489 0.436768C10.8698 0.725593 11.2698 1.14108 11.5492 1.68322C11.8286 2.22536 11.9682 2.87403 11.9682 3.62924C11.9682 4.38681 11.8274 5.03786 11.5457 5.58236C11.2663 6.12687 10.8627 6.54472 10.3347 6.83592C9.80915 7.12711 9.17705 7.27271 8.43841 7.27271ZM7.29139 6.13279H8.37449C8.88112 6.13279 9.3037 6.04046 9.64225 5.8558C9.98079 5.66878 10.2353 5.3906 10.4057 5.02128C10.5762 4.6496 10.6614 4.18558 10.6614 3.62924C10.6614 3.07289 10.5762 2.61125 10.4057 2.2443C10.2353 1.87498 9.98315 1.59917 9.64935 1.41688C9.31791 1.23222 8.90598 1.13989 8.41355 1.13989H7.29139V6.13279Z" fill="#1F8BFF"/>
</svg>
