<svg width="68" height="8" viewBox="0 0 68 8" fill="none" xmlns="http://www.w3.org/2000/svg">
<path d="M2.5425 7.61364C2.01693 7.61364 1.56357 7.49763 1.18242 7.26562C0.80363 7.03125 0.511253 6.70455 0.305287 6.28551C0.101688 5.86411 -0.000110939 5.37405 -0.000110939 4.81534C-0.000110939 4.25663 0.101688 3.7642 0.305287 3.33807C0.511253 2.90956 0.797711 2.57576 1.16466 2.33665C1.53398 2.09517 1.96485 1.97443 2.45728 1.97443C2.74137 1.97443 3.02191 2.02178 3.29889 2.11648C3.57588 2.21117 3.82801 2.36506 4.05529 2.57812C4.28256 2.78883 4.46367 3.06818 4.59861 3.41619C4.73355 3.7642 4.80103 4.19271 4.80103 4.7017V5.05682H0.59648V4.33239H3.94875C3.94875 4.02462 3.8872 3.75 3.76409 3.50852C3.64336 3.26705 3.47053 3.07647 3.24563 2.93679C3.02309 2.79711 2.76031 2.72727 2.45728 2.72727C2.12347 2.72727 1.83464 2.81013 1.5908 2.97585C1.34932 3.1392 1.16348 3.35227 1.03327 3.61506C0.903061 3.87784 0.837957 4.15956 0.837957 4.46023V4.94318C0.837957 5.35511 0.90898 5.70431 1.05103 5.99077C1.19544 6.27486 1.39549 6.49148 1.65117 6.64062C1.90685 6.78741 2.20396 6.8608 2.5425 6.8608C2.76267 6.8608 2.96154 6.83002 3.13909 6.76847C3.31902 6.70455 3.47408 6.60985 3.60429 6.48438C3.7345 6.35653 3.83512 6.19792 3.90614 6.00852L4.7158 6.2358C4.63057 6.51042 4.48734 6.75189 4.28611 6.96023C4.08488 7.16619 3.8363 7.32718 3.54037 7.44318C3.24444 7.55682 2.91182 7.61364 2.5425 7.61364ZM8.13554 7.61364C7.681 7.61364 7.27972 7.49882 6.93171 7.26918C6.5837 7.03717 6.31144 6.71046 6.11495 6.28906C5.91845 5.86529 5.8202 5.36458 5.8202 4.78693C5.8202 4.21402 5.91845 3.71686 6.11495 3.29545C6.31144 2.87405 6.58488 2.54853 6.93526 2.31889C7.28564 2.08925 7.69047 1.97443 8.14975 1.97443C8.50486 1.97443 8.7854 2.03362 8.99137 2.15199C9.1997 2.26799 9.35832 2.40057 9.46722 2.54972C9.57849 2.6965 9.6649 2.81723 9.72645 2.91193H9.79747V0.227273H10.6355V7.5H9.82588V6.66193H9.72645C9.6649 6.76136 9.5773 6.88684 9.46367 7.03835C9.35003 7.1875 9.18786 7.32126 8.97716 7.43963C8.76646 7.55563 8.48592 7.61364 8.13554 7.61364ZM8.24918 6.8608C8.58535 6.8608 8.86944 6.7732 9.10145 6.59801C9.33346 6.42045 9.50983 6.17543 9.63057 5.86293C9.75131 5.54806 9.81168 5.18466 9.81168 4.77273C9.81168 4.36553 9.75249 4.00923 9.63412 3.70384C9.51575 3.39607 9.34056 3.15696 9.10855 2.98651C8.87655 2.81368 8.59009 2.72727 8.24918 2.72727C7.89407 2.72727 7.59814 2.81842 7.36139 3.00071C7.12702 3.18063 6.95065 3.42566 6.83228 3.7358C6.71627 4.04356 6.65827 4.3892 6.65827 4.77273C6.65827 5.16098 6.71746 5.51373 6.83583 5.83097C6.95657 6.14583 7.13412 6.39678 7.3685 6.58381C7.60524 6.76847 7.8988 6.8608 8.24918 6.8608ZM12.2868 7.5V2.04545H13.1249V7.5H12.2868ZM12.713 1.13636C12.5496 1.13636 12.4087 1.08073 12.2904 0.96946C12.1744 0.858191 12.1164 0.724432 12.1164 0.568182C12.1164 0.411932 12.1744 0.278172 12.2904 0.166903C12.4087 0.0556344 12.5496 0 12.713 0C12.8763 0 13.016 0.0556344 13.132 0.166903C13.2504 0.278172 13.3095 0.411932 13.3095 0.568182C13.3095 0.724432 13.2504 0.858191 13.132 0.96946C13.016 1.08073 12.8763 1.13636 12.713 1.13636ZM15.4979 0.227273V7.5H14.6599V0.227273H15.4979ZM20.8966 3.26705L20.1437 3.48011C20.0964 3.35464 20.0265 3.23272 19.9342 3.11435C19.8442 2.99361 19.7211 2.89418 19.5649 2.81605C19.4086 2.73793 19.2086 2.69886 18.9647 2.69886C18.6309 2.69886 18.3528 2.7758 18.1302 2.92969C17.91 3.0812 17.8 3.27415 17.8 3.50852C17.8 3.71686 17.8757 3.88139 18.0272 4.00213C18.1787 4.12287 18.4155 4.22348 18.7375 4.30398L19.5471 4.50284C20.0348 4.62121 20.3982 4.80232 20.6373 5.04616C20.8764 5.28764 20.996 5.59896 20.996 5.98011C20.996 6.29261 20.906 6.57197 20.7261 6.81818C20.5485 7.06439 20.3 7.25852 19.9804 7.40057C19.6608 7.54261 19.2891 7.61364 18.8653 7.61364C18.309 7.61364 17.8485 7.4929 17.4839 7.25142C17.1193 7.00994 16.8885 6.6572 16.7914 6.19318L17.5869 5.99432C17.6626 6.28788 17.8059 6.50805 18.0166 6.65483C18.2296 6.80161 18.5078 6.875 18.8511 6.875C19.2417 6.875 19.5519 6.79214 19.7815 6.62642C20.0135 6.45833 20.1295 6.2571 20.1295 6.02273C20.1295 5.83333 20.0632 5.67472 19.9306 5.54688C19.7981 5.41667 19.5945 5.3196 19.3198 5.25568L18.4108 5.04261C17.9112 4.92424 17.5443 4.74077 17.3099 4.49219C17.0779 4.24124 16.9619 3.92756 16.9619 3.55114C16.9619 3.24337 17.0483 2.97112 17.2211 2.73438C17.3963 2.49763 17.6342 2.31179 17.9349 2.17685C18.2379 2.0419 18.5812 1.97443 18.9647 1.97443C19.5045 1.97443 19.9283 2.0928 20.236 2.32955C20.5462 2.56629 20.7663 2.87879 20.8966 3.26705ZM24.4734 7.61364C23.981 7.61364 23.549 7.49645 23.1773 7.26207C22.808 7.0277 22.5191 6.69981 22.3108 6.27841C22.1048 5.85701 22.0018 5.36458 22.0018 4.80114C22.0018 4.23295 22.1048 3.73698 22.3108 3.31321C22.5191 2.88944 22.808 2.56037 23.1773 2.32599C23.549 2.09162 23.981 1.97443 24.4734 1.97443C24.9659 1.97443 25.3967 2.09162 25.766 2.32599C26.1377 2.56037 26.4266 2.88944 26.6325 3.31321C26.8409 3.73698 26.945 4.23295 26.945 4.80114C26.945 5.36458 26.8409 5.85701 26.6325 6.27841C26.4266 6.69981 26.1377 7.0277 25.766 7.26207C25.3967 7.49645 24.9659 7.61364 24.4734 7.61364ZM24.4734 6.8608C24.8475 6.8608 25.1553 6.76491 25.3967 6.57315C25.6382 6.38139 25.8169 6.12926 25.933 5.81676C26.049 5.50426 26.107 5.16572 26.107 4.80114C26.107 4.43655 26.049 4.09683 25.933 3.78196C25.8169 3.46709 25.6382 3.21259 25.3967 3.01847C25.1553 2.82434 24.8475 2.72727 24.4734 2.72727C24.0994 2.72727 23.7916 2.82434 23.5501 3.01847C23.3087 3.21259 23.1299 3.46709 23.0139 3.78196C22.8979 4.09683 22.8399 4.43655 22.8399 4.80114C22.8399 5.16572 22.8979 5.50426 23.0139 5.81676C23.1299 6.12926 23.3087 6.38139 23.5501 6.57315C23.7916 6.76491 24.0994 6.8608 24.4734 6.8608ZM29.0624 4.21875V7.5H28.2243V2.04545H29.034V2.89773H29.105C29.2328 2.62074 29.427 2.3982 29.6874 2.23011C29.9478 2.05966 30.284 1.97443 30.6959 1.97443C31.0652 1.97443 31.3884 2.05019 31.6654 2.2017C31.9424 2.35085 32.1578 2.57812 32.3117 2.88352C32.4656 3.18655 32.5425 3.57008 32.5425 4.03409V7.5H31.7044V4.09091C31.7044 3.66241 31.5932 3.3286 31.3706 3.08949C31.1481 2.84801 30.8427 2.72727 30.4544 2.72727C30.1869 2.72727 29.9478 2.78527 29.7371 2.90128C29.5288 3.01728 29.3642 3.18655 29.2435 3.40909C29.1228 3.63163 29.0624 3.90152 29.0624 4.21875ZM36.4887 7.5H34.0242V0.227273H36.5384C37.2605 0.227273 37.8807 0.372869 38.3992 0.664062C38.92 0.952888 39.3201 1.36837 39.5995 1.91051C39.8789 2.45265 40.0185 3.10133 40.0185 3.85653C40.0185 4.61411 39.8777 5.26515 39.5959 5.80966C39.3166 6.35417 38.9129 6.77202 38.385 7.06321C37.8594 7.3544 37.2273 7.5 36.4887 7.5ZM35.3417 6.36009H36.4248C36.9314 6.36009 37.354 6.26776 37.6925 6.0831C38.0311 5.89607 38.2856 5.6179 38.456 5.24858C38.6265 4.87689 38.7117 4.41288 38.7117 3.85653C38.7117 3.30019 38.6265 2.83854 38.456 2.47159C38.2856 2.10227 38.0334 1.82647 37.6996 1.64418C37.3682 1.45952 36.9563 1.36719 36.4638 1.36719H35.3417V6.36009ZM42.7831 7.61009C42.4374 7.61009 42.1261 7.54853 41.8491 7.42543C41.5745 7.29995 41.3567 7.11529 41.1957 6.87145C41.0371 6.6276 40.9578 6.32694 40.9578 5.96946C40.9578 5.6617 41.0146 5.4072 41.1283 5.20597C41.2419 5.00473 41.397 4.84375 41.5935 4.72301C41.79 4.60227 42.0113 4.51113 42.2575 4.44957C42.5061 4.38565 42.763 4.33949 43.0281 4.31108C43.3477 4.27794 43.607 4.24834 43.8058 4.2223C44.0047 4.19389 44.1491 4.15128 44.2391 4.09446C44.3314 4.03527 44.3776 3.94413 44.3776 3.82102V3.79972C44.3776 3.5322 44.2982 3.32505 44.1396 3.17827C43.981 3.03149 43.7526 2.9581 43.4543 2.9581C43.1394 2.9581 42.8896 3.02675 42.705 3.16406C42.5227 3.30137 42.3996 3.46354 42.3356 3.65057L41.1354 3.48011C41.2301 3.14867 41.3863 2.87169 41.6041 2.64915C41.8219 2.42424 42.0883 2.25616 42.4031 2.14489C42.718 2.03125 43.066 1.97443 43.4472 1.97443C43.7099 1.97443 43.9715 2.00521 44.232 2.06676C44.4924 2.12831 44.7303 2.23011 44.9457 2.37216C45.1612 2.51184 45.334 2.70241 45.4642 2.94389C45.5968 3.18537 45.6631 3.48722 45.6631 3.84943V7.5H44.4273V6.75071H44.3847C44.3065 6.90223 44.1964 7.04427 44.0544 7.17685C43.9147 7.30705 43.7383 7.41241 43.5253 7.4929C43.3146 7.57102 43.0672 7.61009 42.7831 7.61009ZM43.1169 6.66548C43.3749 6.66548 43.5987 6.61458 43.7881 6.51278C43.9775 6.40862 44.1231 6.27131 44.2249 6.10085C44.329 5.9304 44.3811 5.74455 44.3811 5.54332V4.90057C44.3409 4.93371 44.2722 4.96449 44.1751 4.9929C44.0804 5.02131 43.9739 5.04616 43.8555 5.06747C43.7372 5.08878 43.62 5.10772 43.504 5.12429C43.388 5.14086 43.2874 5.15507 43.2021 5.1669C43.0104 5.19294 42.8387 5.23556 42.6872 5.29474C42.5357 5.35393 42.4161 5.43679 42.3285 5.54332C42.241 5.64749 42.1972 5.78243 42.1972 5.94815C42.1972 6.1849 42.2836 6.36364 42.4564 6.48438C42.6292 6.60511 42.8494 6.66548 43.1169 6.66548ZM48.2412 4.30398V7.5H46.9557V2.04545H48.1844V2.9723H48.2483C48.3738 2.6669 48.5738 2.42424 48.8484 2.24432C49.1254 2.06439 49.4675 1.97443 49.8747 1.97443C50.2511 1.97443 50.579 2.05492 50.8584 2.21591C51.1401 2.37689 51.3579 2.61009 51.5118 2.91548C51.668 3.22088 51.745 3.59138 51.7426 4.02699V7.5H50.4571V4.22585C50.4571 3.86127 50.3624 3.57599 50.173 3.37003C49.986 3.16406 49.7267 3.06108 49.3953 3.06108C49.1704 3.06108 48.9704 3.1108 48.7952 3.21023C48.6223 3.30729 48.4862 3.44815 48.3868 3.63281C48.2897 3.81747 48.2412 4.04119 48.2412 4.30398ZM55.7731 2.04545V3.03977H52.6375V2.04545H55.7731ZM53.4116 0.738636H54.6972V5.85938C54.6972 6.0322 54.7232 6.16477 54.7753 6.2571C54.8297 6.34706 54.9008 6.40862 54.9883 6.44176C55.0759 6.47491 55.173 6.49148 55.2795 6.49148C55.36 6.49148 55.4334 6.48556 55.4997 6.47372C55.5684 6.46188 55.6205 6.45123 55.656 6.44176L55.8726 7.44673C55.8039 7.47041 55.7057 7.49645 55.5778 7.52486C55.4524 7.55327 55.2985 7.56984 55.1162 7.57457C54.7942 7.58404 54.5042 7.53551 54.2462 7.42898C53.9881 7.32008 53.7833 7.15199 53.6318 6.92472C53.4827 6.69744 53.4093 6.41335 53.4116 6.07244V0.738636ZM58.4179 7.61009C58.0722 7.61009 57.7609 7.54853 57.4839 7.42543C57.2093 7.29995 56.9915 7.11529 56.8305 6.87145C56.6719 6.6276 56.5926 6.32694 56.5926 5.96946C56.5926 5.6617 56.6494 5.4072 56.763 5.20597C56.8767 5.00473 57.0317 4.84375 57.2282 4.72301C57.4247 4.60227 57.6461 4.51113 57.8923 4.44957C58.1409 4.38565 58.3977 4.33949 58.6629 4.31108C58.9825 4.27794 59.2417 4.24834 59.4406 4.2223C59.6394 4.19389 59.7839 4.15128 59.8738 4.09446C59.9662 4.03527 60.0123 3.94413 60.0123 3.82102V3.79972C60.0123 3.5322 59.933 3.32505 59.7744 3.17827C59.6158 3.03149 59.3873 2.9581 59.089 2.9581C58.7742 2.9581 58.5244 3.02675 58.3397 3.16406C58.1574 3.30137 58.0343 3.46354 57.9704 3.65057L56.7701 3.48011C56.8648 3.14867 57.0211 2.87169 57.2389 2.64915C57.4567 2.42424 57.723 2.25616 58.0379 2.14489C58.3528 2.03125 58.7008 1.97443 59.0819 1.97443C59.3447 1.97443 59.6063 2.00521 59.8667 2.06676C60.1271 2.12831 60.3651 2.23011 60.5805 2.37216C60.7959 2.51184 60.9688 2.70241 61.099 2.94389C61.2315 3.18537 61.2978 3.48722 61.2978 3.84943V7.5H60.062V6.75071H60.0194C59.9413 6.90223 59.8312 7.04427 59.6892 7.17685C59.5495 7.30705 59.3731 7.41241 59.16 7.4929C58.9493 7.57102 58.7019 7.61009 58.4179 7.61009ZM58.7517 6.66548C59.0097 6.66548 59.2334 6.61458 59.4228 6.51278C59.6122 6.40862 59.7578 6.27131 59.8596 6.10085C59.9638 5.9304 60.0159 5.74455 60.0159 5.54332V4.90057C59.9756 4.93371 59.907 4.96449 59.8099 4.9929C59.7152 5.02131 59.6087 5.04616 59.4903 5.06747C59.3719 5.08878 59.2547 5.10772 59.1387 5.12429C59.0227 5.14086 58.9221 5.15507 58.8369 5.1669C58.6451 5.19294 58.4735 5.23556 58.322 5.29474C58.1705 5.35393 58.0509 5.43679 57.9633 5.54332C57.8757 5.64749 57.8319 5.78243 57.8319 5.94815C57.8319 6.1849 57.9183 6.36364 58.0912 6.48438C58.264 6.60511 58.4841 6.66548 58.7517 6.66548ZM66.9015 3.48722L65.7296 3.61506C65.6965 3.49669 65.6385 3.38542 65.5556 3.28125C65.4751 3.17708 65.3662 3.09304 65.2289 3.02912C65.0916 2.9652 64.9235 2.93324 64.7247 2.93324C64.4572 2.93324 64.2323 2.99124 64.05 3.10724C63.87 3.22325 63.7813 3.37358 63.7836 3.55824C63.7813 3.71686 63.8393 3.84588 63.9576 3.94531C64.0784 4.04474 64.2772 4.12642 64.5542 4.19034L65.4846 4.3892C66.0007 4.50047 66.3842 4.67685 66.6352 4.91832C66.8885 5.1598 67.0163 5.47585 67.0187 5.86648C67.0163 6.20975 66.9157 6.51278 66.7169 6.77557C66.5204 7.03598 66.2469 7.23958 65.8966 7.38636C65.5462 7.53314 65.1437 7.60653 64.6892 7.60653C64.0216 7.60653 63.4841 7.46686 63.0769 7.1875C62.6698 6.90578 62.4271 6.51397 62.349 6.01207L63.6025 5.89134C63.6593 6.13755 63.7801 6.32339 63.9647 6.44886C64.1494 6.57434 64.3897 6.63707 64.6856 6.63707C64.991 6.63707 65.236 6.57434 65.4207 6.44886C65.6077 6.32339 65.7012 6.16832 65.7012 5.98366C65.7012 5.82741 65.6409 5.69839 65.5201 5.59659C65.4018 5.49479 65.2171 5.41667 64.9662 5.36222L64.0358 5.1669C63.5126 5.058 63.1255 4.87453 62.8745 4.61648C62.6236 4.35606 62.4993 4.02699 62.5017 3.62926C62.4993 3.29309 62.5904 3.00189 62.7751 2.75568C62.9621 2.5071 63.2214 2.31534 63.5528 2.1804C63.8866 2.04309 64.2713 1.97443 64.7069 1.97443C65.3461 1.97443 65.8492 2.11056 66.2162 2.38281C66.5855 2.65507 66.8139 3.0232 66.9015 3.48722Z" fill="#1F8BFF"/>
</svg>
