<svg width="34" height="34" viewBox="0 0 34 34" fill="none" xmlns="http://www.w3.org/2000/svg">
<path d="M20.1223 12.0275C20.1223 13.5603 18.8797 14.803 17.3468 14.803C15.8139 14.803 14.5713 13.5603 14.5713 12.0275C14.5713 10.4946 15.8139 9.25195 17.3468 9.25195C18.8797 9.25195 20.1223 10.4946 20.1223 12.0275Z" fill="white"/>
<path d="M24.7485 13.8773C24.7485 14.8992 23.9201 15.7277 22.8982 15.7277C21.8762 15.7277 21.0479 14.8992 21.0479 13.8773C21.0479 12.8554 21.8762 12.027 22.8982 12.027C23.9201 12.027 24.7485 12.8554 24.7485 13.8773Z" fill="white"/>
<path d="M21.0478 20.3542C21.0478 18.3105 19.391 16.6536 17.3472 16.6536C15.3033 16.6536 13.6465 18.3105 13.6465 20.3542V23.1298H21.0478V20.3542Z" fill="white"/>
<path d="M13.647 13.8773C13.647 14.8992 12.8185 15.7277 11.7966 15.7277C10.7747 15.7277 9.94629 14.8992 9.94629 13.8773C9.94629 12.8554 10.7747 12.027 11.7966 12.027C12.8185 12.027 13.647 12.8554 13.647 13.8773Z" fill="white"/>
<path d="M22.8983 23.1299V20.3544C22.8983 19.3791 22.6468 18.4626 22.2051 17.6661C22.4267 17.6091 22.659 17.5789 22.8983 17.5789C24.4312 17.5789 25.6738 18.8215 25.6738 20.3544V23.1299H22.8983Z" fill="white"/>
<path d="M12.4892 17.6661C12.0475 18.4626 11.796 19.3791 11.796 20.3544V23.1299H9.02051V20.3544C9.02051 18.8215 10.2631 17.5789 11.796 17.5789C12.0354 17.5789 12.2676 17.6091 12.4892 17.6661Z" fill="white"/>
</svg>
