<svg width="34" height="34" viewBox="0 0 34 34" fill="none" xmlns="http://www.w3.org/2000/svg">
<path d="M17.2292 16.2292C16.5347 16.2292 15.9444 15.9861 15.4583 15.5C14.9722 15.0139 14.7292 14.4236 14.7292 13.7292C14.7292 13.0347 14.9722 12.4444 15.4583 11.9583C15.9444 11.4722 16.5347 11.2292 17.2292 11.2292C17.9236 11.2292 18.5139 11.4722 19 11.9583C19.4861 12.4444 19.7292 13.0347 19.7292 13.7292C19.7292 14.4236 19.4861 15.0139 19 15.5C18.5139 15.9861 17.9236 16.2292 17.2292 16.2292ZM12.2292 21.2292V19.7917C12.2292 19.5 12.3021 19.2292 12.4479 18.9792C12.5938 18.7292 12.7847 18.5278 13.0208 18.375C13.6458 17.9722 14.316 17.6806 15.0312 17.5C15.7465 17.3194 16.4792 17.2292 17.2292 17.2292C17.9792 17.2292 18.7118 17.3194 19.4271 17.5C20.1424 17.6806 20.8125 17.9722 21.4375 18.375C21.6736 18.5278 21.8646 18.7292 22.0104 18.9792C22.1562 19.2292 22.2292 19.5 22.2292 19.7917V21.2292H12.2292ZM25.0625 13.9583C24.6319 12.9167 24.0243 12.0035 23.2396 11.2188C22.4549 10.434 21.5417 9.82639 20.5 9.39583L21.0833 8C22.3056 8.5 23.3785 9.21528 24.3021 10.1458C25.2257 11.0764 25.9444 12.1528 26.4583 13.375L25.0625 13.9583ZM9.39583 13.9583L8 13.375C8.5 12.1528 9.21528 11.0764 10.1458 10.1458C11.0764 9.21528 12.1528 8.5 13.375 8L13.9583 9.39583C12.9167 9.82639 12.0069 10.434 11.2292 11.2188C10.4514 12.0035 9.84028 12.9167 9.39583 13.9583ZM13.375 26.4583C12.1528 25.9583 11.0799 25.2431 10.1562 24.3125C9.23264 23.3819 8.51389 22.3056 8 21.0833L9.39583 20.5C9.84028 21.5417 10.4514 22.4514 11.2292 23.2292C12.0069 24.0069 12.9167 24.6181 13.9583 25.0625L13.375 26.4583ZM21.0833 26.4583L20.5 25.0625C21.5417 24.6181 22.4549 24.0069 23.2396 23.2292C24.0243 22.4514 24.6319 21.5417 25.0625 20.5L26.4583 21.0833C25.9583 22.3056 25.2431 23.3785 24.3125 24.3021C23.3819 25.2257 22.3056 25.9444 21.0833 26.4583Z" fill="white"/>
</svg>
